<?xml version="1.0" encoding="UTF-8"?>
<!DOCTYPE svg PUBLIC "-//W3C//DTD SVG 1.1//EN" "http://www.w3.org/Graphics/SVG/1.1/DTD/svg11.dtd">
<!-- Creator: CorelDRAW 2021 (64 Bit) -->
<svg xmlns="http://www.w3.org/2000/svg" xml:space="preserve" width="3.85mm" height="3.7598mm" version="1.1" style="shape-rendering:geometricPrecision; text-rendering:geometricPrecision; image-rendering:optimizeQuality; fill-rule:evenodd; clip-rule:evenodd"
viewBox="0 0 26229 25614"
 xmlns:xlink="http://www.w3.org/1999/xlink"
 xmlns:xodm="http://www.corel.com/coreldraw/odm/2003">
 <defs>
  <style type="text/css">
   <![CDATA[
    .fil0 {fill:#6A2AA5}
   ]]>
  </style>
 </defs>
 <g id="Camada_x0020_1">
  <metadata id="CorelCorpID_0Corel-Layer"/>
  <g id="_2176296986352">
   <path class="fil0" d="M0 12659c0,2199 196,3370 914,5384 61,171 115,260 196,420 86,172 121,288 204,462 424,890 1167,2044 1849,2760 135,142 176,223 306,360 228,237 434,431 667,664 445,445 937,844 1467,1195 539,356 1052,683 1634,977 397,200 1598,733 2032,733 365,0 615,-332 615,-717l0 -2408c-309,7 -497,102 -871,102 -1583,0 -2901,-82 -3571,-1653 -322,-753 -754,-1490 -1460,-1922 -202,-125 -478,-345 -501,-626 653,-437 1675,171 2140,626 621,609 1098,2077 2557,2009 625,-29 1093,-13 1592,-290 303,-168 149,-698 584,-1363 115,-176 292,-257 351,-470 -382,-32 -909,-132 -1277,-209 -1362,-281 -2536,-871 -3420,-1907 -368,-431 -610,-948 -803,-1502 -672,-1918 -663,-4182 511,-5881 433,-626 396,-273 215,-1042 -196,-834 1,-2931 422,-2931 757,0 1279,250 1903,504 900,368 1414,914 1743,843 778,-168 1467,-382 2296,-376 389,4 603,-76 1024,-52 917,52 1899,152 2787,392 204,55 225,93 380,13 635,-330 680,-499 1728,-938 657,-275 841,-388 1764,-388 191,820 409,680 409,2202 0,266 -29,449 -80,687 -37,172 -170,490 -156,585 25,192 2269,2185 886,6339 -504,1515 -1604,2515 -3054,3093 -704,282 -1720,545 -2509,564 335,500 581,532 756,1293 282,1226 -49,4174 168,4953 84,306 328,463 663,463 334,0 1604,-573 1897,-716 429,-212 889,-441 1273,-726l1127 -819c493,-392 933,-835 1378,-1285 136,-138 173,-219 307,-360 724,-760 1399,-1813 1858,-2752 769,-1575 1330,-3464 1330,-5276 0,-1745 -122,-3455 -761,-5026 -311,-766 -617,-1442 -1015,-2160l-632 -956c-452,-642 -917,-1198 -1473,-1755 -1199,-1202 -2720,-2198 -4293,-2827 -209,-83 -411,-157 -593,-226 -2238,-841 -5085,-933 -7418,-365 -1233,300 -2311,760 -3416,1348 -995,528 -1952,1277 -2745,2070 -781,783 -1527,1711 -2085,2679 -197,341 -361,666 -548,1039 -625,1237 -1247,3323 -1247,5156l-4 7z"/>
  </g>
 </g>
</svg>
