<?xml version="1.0" encoding="UTF-8"?>
<!DOCTYPE svg PUBLIC "-//W3C//DTD SVG 1.1//EN" "http://www.w3.org/Graphics/SVG/1.1/DTD/svg11.dtd">
<!-- Creator: CorelDRAW 2021 (64 Bit) -->
<svg xmlns="http://www.w3.org/2000/svg" xml:space="preserve" width="3.6196mm" height="3.6158mm" version="1.1" style="shape-rendering:geometricPrecision; text-rendering:geometricPrecision; image-rendering:optimizeQuality; fill-rule:evenodd; clip-rule:evenodd"
viewBox="0 0 17730 17712"
 xmlns:xlink="http://www.w3.org/1999/xlink"
 xmlns:xodm="http://www.corel.com/coreldraw/odm/2003">
 <defs>
  <style type="text/css">
   <![CDATA[
    .fil0 {fill:#6A2AA5}
   ]]>
  </style>
 </defs>
 <g id="Camada_x0020_1">
  <metadata id="CorelCorpID_0Corel-Layer"/>
  <g id="_2176486250336">
   <path class="fil0" d="M1 1181l0 15349c0,168 65,349 123,467 193,385 646,715 1077,715l15310 0c149,0 398,-76 498,-132 59,-33 144,-83 193,-121 337,-267 529,-605 529,-1066l0 -15074c0,-567 -285,-937 -709,-1181 -98,-56 -355,-138 -511,-138l-15310 0c-581,0 -1201,583 -1201,1181l1 0zm2623 13907l2636 6 0 -8457 -2633 0 -3 8451 0 0zm6804 -7296l0 -1156 -2519 0 -5 8457 2627 0 0 -4152c0,-1282 285,-2199 1609,-2199 1422,0 1329,1533 1329,2514 0,1275 0,2552 0,3828 181,30 2270,9 2632,9l0 -4842c0,-761 -108,-1708 -397,-2324 -295,-632 -707,-1051 -1412,-1304 -663,-238 -1663,-269 -2339,-42 -510,171 -901,440 -1230,817 -125,145 -231,367 -296,393l0 1zm-5704 -5339c-769,119 -1440,820 -1290,1745 122,764 831,1406 1737,1272 767,-113 1404,-831 1281,-1729 -104,-755 -829,-1425 -1727,-1288l-1 0z"/>
  </g>
 </g>
</svg>
